<!-- Animated using SVGANIMA - https://svganima.com -->
<svg width="800px" height="800px" viewBox="0 0 16 16" xmlns="http://www.w3.org/2000/svg" id="svg7218" preserveAspectRatio="xMidYMid">
  <defs id="defs1045"></defs><path fill="#12eb24" fill-rule="evenodd" d="M 4 4 L 9 4 C 9.55228 4 10 3.55228 10 3 C 10 2.44772 9.55228 2 9 2 L 4 2 C 2.89543 2 2 2.89543 2 4 L 2 12 C 2 13.1046 2.89543 14 4 14 L 12 14 C 13.1046 14 14 13.1046 14 12 L 14 10 C 14 9.44771 13.5523 9 13 9 C 12.4477 9 12 9.44771 12 10 L 12 12 L 4 12 L 4 4 Z M 15.2071 2.29289 C 14.8166 1.90237 14.007247852752235 1.9794610920091018 13.616747852752233 2.369981092009102 L 8.5 7.58579 L 7.70711 6.79289 C 7.31658 6.40237 6.68342 6.40237 6.29289 6.79289 C 5.90237 7.18342 5.90237 7.81658 6.29289 8.20711 L 7.79289 9.70711 C 7.98043 9.89464 8.23478 10 8.5 10 C 8.76522 10 9.01957 9.89464 9.20711 9.70711 L 15.2071 3.70711 C 15.5976 3.31658 15.5976 2.68342 15.2071 2.29289 Z" id="path2742"></path>
</svg>